<svg xmlns="http://www.w3.org/2000/svg" viewBox="0 0 200 200" width="200" height="200">
  <!-- Very long ears -->
  <ellipse cx="74" cy="36" rx="11" ry="28" fill="#9e9e9e"/>
  <ellipse cx="74" cy="36" rx="7" ry="20" fill="#e8c4c4"/>
  <ellipse cx="126" cy="36" rx="11" ry="28" fill="#9e9e9e"/>
  <ellipse cx="126" cy="36" rx="7" ry="20" fill="#e8c4c4"/>
  <!-- Head -->
  <ellipse cx="100" cy="88" rx="46" ry="52" fill="#9e9e9e"/>
  <!-- White muzzle (large) -->
  <ellipse cx="100" cy="116" rx="32" ry="26" fill="#e0e0e0"/>
  <!-- Eyes -->
  <circle cx="78" cy="80" r="9" fill="#fff"/>
  <circle cx="122" cy="80" r="9" fill="#fff"/>
  <circle cx="79" cy="80" r="6" fill="#222"/>
  <circle cx="123" cy="80" r="6" fill="#222"/>
  <circle cx="80" cy="78" r="2" fill="#fff"/>
  <circle cx="124" cy="78" r="2" fill="#fff"/>
  <!-- Nostrils -->
  <ellipse cx="92" cy="122" rx="6" ry="4" fill="#bdbdbd"/>
  <ellipse cx="108" cy="122" rx="6" ry="4" fill="#bdbdbd"/>
  <!-- Mouth -->
  <path d="M86 132 Q100 140 114 132" stroke="#888" stroke-width="2.5" fill="none" stroke-linecap="round"/>
  <!-- Mane (short and spiky) -->
  <path d="M88 42 L86 28 M100 38 L100 22 M112 42 L114 28" stroke="#666" stroke-width="4" stroke-linecap="round"/>
</svg>
