<svg xmlns="http://www.w3.org/2000/svg" viewBox="0 0 200 200" width="200" height="200">
  <!-- Spiny back (dark mound) -->
  <ellipse cx="108" cy="118" rx="72" ry="52" fill="#7a5c3c"/>
  <!-- Spines -->
  <line x1="108" y1="66" x2="108" y2="48" stroke="#5a3e20" stroke-width="3.5" stroke-linecap="round"/>
  <line x1="88" y1="68" x2="82" y2="50" stroke="#5a3e20" stroke-width="3.5" stroke-linecap="round"/>
  <line x1="70" y1="76" x2="60" y2="60" stroke="#5a3e20" stroke-width="3.5" stroke-linecap="round"/>
  <line x1="128" y1="68" x2="134" y2="50" stroke="#5a3e20" stroke-width="3.5" stroke-linecap="round"/>
  <line x1="146" y1="76" x2="156" y2="60" stroke="#5a3e20" stroke-width="3.5" stroke-linecap="round"/>
  <line x1="58" y1="94" x2="44" y2="82" stroke="#5a3e20" stroke-width="3.5" stroke-linecap="round"/>
  <line x1="158" y1="94" x2="172" y2="82" stroke="#5a3e20" stroke-width="3.5" stroke-linecap="round"/>
  <line x1="52" y1="116" x2="36" y2="110" stroke="#5a3e20" stroke-width="3.5" stroke-linecap="round"/>
  <line x1="164" y1="116" x2="180" y2="110" stroke="#5a3e20" stroke-width="3.5" stroke-linecap="round"/>
  <!-- Face -->
  <ellipse cx="70" cy="130" rx="38" ry="32" fill="#d4a96a"/>
  <!-- Eye -->
  <circle cx="58" cy="122" r="7" fill="#fff"/>
  <circle cx="59" cy="122" r="4" fill="#222"/>
  <circle cx="59" cy="121" r="1.5" fill="#fff"/>
  <!-- Nose -->
  <ellipse cx="46" cy="132" rx="7" ry="5" fill="#333"/>
  <!-- Mouth -->
  <path d="M46 138 Q56 144 64 138" stroke="#8b5e3c" stroke-width="2" fill="none" stroke-linecap="round"/>
  <!-- Ear -->
  <ellipse cx="68" cy="100" rx="8" ry="12" fill="#d4a96a"/>
</svg>
