<svg xmlns="http://www.w3.org/2000/svg" viewBox="0 0 200 200" width="200" height="200">
  <!-- Body -->
  <ellipse cx="100" cy="130" rx="58" ry="50" fill="#f0c060"/>
  <!-- Wing -->
  <ellipse cx="78" cy="135" rx="30" ry="20" fill="#d4a030" transform="rotate(-15 78 135)"/>
  <!-- Tail feathers -->
  <ellipse cx="152" cy="118" rx="10" ry="24" fill="#d4a030" transform="rotate(30 152 118)"/>
  <ellipse cx="158" cy="126" rx="10" ry="22" fill="#e8b840" transform="rotate(50 158 126)"/>
  <!-- Head -->
  <circle cx="76" cy="78" r="28" fill="#f0c060"/>
  <!-- Comb -->
  <ellipse cx="68" cy="52" rx="7" ry="12" fill="#e74c3c" transform="rotate(-10 68 52)"/>
  <ellipse cx="76" cy="48" rx="7" ry="13" fill="#e74c3c"/>
  <ellipse cx="84" cy="52" rx="7" ry="12" fill="#e74c3c" transform="rotate(10 84 52)"/>
  <!-- Wattle -->
  <ellipse cx="62" cy="92" rx="7" ry="10" fill="#e74c3c"/>
  <!-- Eye -->
  <circle cx="82" cy="74" r="8" fill="#fff"/>
  <circle cx="84" cy="74" r="4" fill="#333"/>
  <circle cx="85" cy="72" r="1.5" fill="#fff"/>
  <!-- Beak -->
  <polygon points="56,82 44,88 56,94" fill="#e8a030"/>
</svg>
