<svg xmlns="http://www.w3.org/2000/svg" viewBox="0 0 200 200" width="200" height="200">
  <!-- Mane -->
  <ellipse cx="96" cy="62" rx="16" ry="36" fill="#5a3e1e" transform="rotate(-10 96 62)"/>
  <!-- Ears -->
  <polygon points="70,64 60,34 86,58" fill="#c8845a"/>
  <polygon points="72,62 66,42 84,58" fill="#e8b0a0"/>
  <polygon points="108,62 118,34 96,58" fill="#c8845a"/>
  <polygon points="106,62 112,42 98,58" fill="#e8b0a0"/>
  <!-- Long head / neck -->
  <ellipse cx="88" cy="108" rx="30" ry="60" fill="#c8845a" transform="rotate(-8 88 108)"/>
  <!-- Nostril area -->
  <ellipse cx="72" cy="148" rx="20" ry="16" fill="#b87848"/>
  <!-- Eye -->
  <circle cx="84" cy="90" r="9" fill="#fff"/>
  <circle cx="86" cy="90" r="5" fill="#2c1800"/>
  <circle cx="87" cy="88" r="2" fill="#fff"/>
  <!-- Nostril -->
  <ellipse cx="68" cy="150" rx="5" ry="4" fill="#8a5030" transform="rotate(-10 68 150)"/>
  <!-- Mouth line -->
  <path d="M60 158 Q72 164 82 158" stroke="#8a5030" stroke-width="2.5" fill="none" stroke-linecap="round"/>
</svg>
