<svg xmlns="http://www.w3.org/2000/svg" viewBox="0 0 200 200" width="200" height="200">
  <!-- Body segments -->
  <ellipse cx="100" cy="110" rx="30" ry="40" fill="#e06060"/>
  <ellipse cx="100" cy="80" rx="26" ry="20" fill="#e86868"/>
  <ellipse cx="100" cy="58" rx="20" ry="16" fill="#e06060"/>
  <!-- Tail fan -->
  <ellipse cx="100" cy="150" rx="36" ry="18" fill="#e06060"/>
  <path d="M70 158 L56 178 L80 162" fill="#cc4a4a"/>
  <path d="M130 158 L144 178 L120 162" fill="#cc4a4a"/>
  <path d="M100 165 L100 188" stroke="#cc4a4a" stroke-width="10" stroke-linecap="round"/>
  <!-- Big claws -->
  <path d="M72 72 C52 60 32 54 24 62 C18 70 26 80 38 78 C46 76 50 68 56 72" fill="#e06060" stroke="#cc4a4a" stroke-width="2"/>
  <ellipse cx="22" cy="68" rx="12" ry="8" fill="#e06060"/>
  <path d="M128 72 C148 60 168 54 176 62 C182 70 174 80 162 78 C154 76 150 68 144 72" fill="#e06060" stroke="#cc4a4a" stroke-width="2"/>
  <ellipse cx="178" cy="68" rx="12" ry="8" fill="#e06060"/>
  <!-- Walking legs (3 pairs) -->
  <line x1="74" y1="88" x2="52" y2="108" stroke="#cc4a4a" stroke-width="4" stroke-linecap="round"/>
  <line x1="72" y1="100" x2="50" y2="118" stroke="#cc4a4a" stroke-width="4" stroke-linecap="round"/>
  <line x1="74" y1="112" x2="54" y2="130" stroke="#cc4a4a" stroke-width="4" stroke-linecap="round"/>
  <line x1="126" y1="88" x2="148" y2="108" stroke="#cc4a4a" stroke-width="4" stroke-linecap="round"/>
  <line x1="128" y1="100" x2="150" y2="118" stroke="#cc4a4a" stroke-width="4" stroke-linecap="round"/>
  <line x1="126" y1="112" x2="146" y2="130" stroke="#cc4a4a" stroke-width="4" stroke-linecap="round"/>
  <!-- Eyes on stalks -->
  <line x1="88" y1="44" x2="82" y2="34" stroke="#e06060" stroke-width="3"/>
  <circle cx="82" cy="32" r="5" fill="#222"/>
  <line x1="112" y1="44" x2="118" y2="34" stroke="#e06060" stroke-width="3"/>
  <circle cx="118" cy="32" r="5" fill="#222"/>
  <!-- Antennae -->
  <path d="M86 46 C70 36 50 22 36 10" stroke="#cc4a4a" stroke-width="2" fill="none"/>
  <path d="M114 46 C130 36 150 22 164 10" stroke="#cc4a4a" stroke-width="2" fill="none"/>
</svg>
