<svg xmlns="http://www.w3.org/2000/svg" viewBox="0 0 200 200" width="200" height="200">
  <!-- Tail feathers -->
  <ellipse cx="86"  cy="172" rx="10" ry="28" fill="#27ae60" transform="rotate(-10 86 172)"/>
  <ellipse cx="100" cy="176" rx="10" ry="30" fill="#2980b9"/>
  <ellipse cx="114" cy="172" rx="10" ry="28" fill="#e74c3c" transform="rotate(10 114 172)"/>
  <!-- Body -->
  <ellipse cx="100" cy="136" rx="42" ry="50" fill="#27ae60"/>
  <!-- Wing -->
  <ellipse cx="124" cy="142" rx="22" ry="38" fill="#2980b9" transform="rotate(12 124 142)"/>
  <!-- Head -->
  <circle cx="100" cy="82" r="36" fill="#27ae60"/>
  <!-- Red forehead patch -->
  <ellipse cx="100" cy="62" rx="20" ry="14" fill="#e74c3c"/>
  <!-- Eye ring -->
  <circle cx="82" cy="78" r="14" fill="#f6c177"/>
  <!-- Eye -->
  <circle cx="82" cy="78" r="8"  fill="#fff"/>
  <circle cx="84" cy="78" r="5"  fill="#111"/>
  <circle cx="85" cy="76" r="2"  fill="#fff"/>
  <!-- Hooked beak — sits clearly below the eye ring (eye ring bottom = y 92),
       centred between eye and body, protrudes left matching the face angle -->
  <path d="M86,104 Q68,106 64,120 Q76,128 90,118 Q98,110 86,104Z" fill="#e8a030"/>
  <!-- Lower mandible hint -->
  <path d="M74,118 Q68,124 74,130 Q82,127 80,120" fill="#c88820"/>
</svg>
