<svg xmlns="http://www.w3.org/2000/svg" viewBox="0 0 200 200" width="200" height="200">
  <!-- Tail feathers -->
  <ellipse cx="86"  cy="172" rx="10" ry="28" fill="#27ae60" transform="rotate(-10 86 172)"/>
  <ellipse cx="100" cy="176" rx="10" ry="30" fill="#2980b9"/>
  <ellipse cx="114" cy="172" rx="10" ry="28" fill="#e74c3c" transform="rotate(10 114 172)"/>
  <!-- Body -->
  <ellipse cx="100" cy="136" rx="42" ry="50" fill="#27ae60"/>
  <!-- Wing -->
  <ellipse cx="124" cy="142" rx="22" ry="38" fill="#2980b9" transform="rotate(12 124 142)"/>
  <!-- Head -->
  <circle cx="100" cy="82" r="36" fill="#27ae60"/>
  <!-- Red forehead patch -->
  <ellipse cx="100" cy="62" rx="20" ry="14" fill="#e74c3c"/>
  <!-- Eye ring — shifted right so eye reads as profile (beak is to the left) -->
  <circle cx="90" cy="76" r="14" fill="#f6c177"/>
  <!-- Eye -->
  <circle cx="90" cy="76" r="8"  fill="#fff"/>
  <circle cx="92" cy="76" r="5"  fill="#111"/>
  <circle cx="93" cy="74" r="2"  fill="#fff"/>
  <!-- Upper mandible — protrudes left from the face at eye level, hooks down at tip -->
  <path d="M66,82 Q46,78 40,92 Q50,100 64,94 Q72,88 66,82Z" fill="#e8a030"/>
  <!-- Hook tip curving inward -->
  <path d="M40,92 Q36,102 44,108 Q52,104 50,96" fill="#c88820"/>
  <!-- Lower mandible — sits just below the upper -->
  <path d="M66,90 Q50,92 48,102 Q58,108 68,100 Q74,94 66,90Z" fill="#d09020"/>
</svg>
