<svg xmlns="http://www.w3.org/2000/svg" viewBox="0 0 200 200" width="200" height="200">
  <g fill="#1f7d8c">
    <ellipse cx="100" cy="56" rx="8" ry="46" transform="rotate(-64 100 130)"/>
    <ellipse cx="100" cy="56" rx="8" ry="46" transform="rotate(-48 100 130)"/>
    <ellipse cx="100" cy="56" rx="8" ry="46" transform="rotate(-32 100 130)"/>
    <ellipse cx="100" cy="56" rx="8" ry="46" transform="rotate(-16 100 130)"/>
    <ellipse cx="100" cy="56" rx="8" ry="46"/>
    <ellipse cx="100" cy="56" rx="8" ry="46" transform="rotate(16 100 130)"/>
    <ellipse cx="100" cy="56" rx="8" ry="46" transform="rotate(32 100 130)"/>
    <ellipse cx="100" cy="56" rx="8" ry="46" transform="rotate(48 100 130)"/>
    <ellipse cx="100" cy="56" rx="8" ry="46" transform="rotate(64 100 130)"/>
  </g>
  <g>
    <g><circle cx="26" cy="94" r="9" fill="#2f6f8c"/><circle cx="26" cy="94" r="5" fill="#e8b23a"/><circle cx="26" cy="94" r="2" fill="#23303a"/></g>
    <g><circle cx="39" cy="75" r="9" fill="#2f6f8c"/><circle cx="39" cy="75" r="5" fill="#e8b23a"/><circle cx="39" cy="75" r="2" fill="#23303a"/></g>
    <g><circle cx="57" cy="61" r="9" fill="#2f6f8c"/><circle cx="57" cy="61" r="5" fill="#e8b23a"/><circle cx="57" cy="61" r="2" fill="#23303a"/></g>
    <g><circle cx="77" cy="51" r="9" fill="#2f6f8c"/><circle cx="77" cy="51" r="5" fill="#e8b23a"/><circle cx="77" cy="51" r="2" fill="#23303a"/></g>
    <g><circle cx="100" cy="48" r="9" fill="#2f6f8c"/><circle cx="100" cy="48" r="5" fill="#e8b23a"/><circle cx="100" cy="48" r="2" fill="#23303a"/></g>
    <g><circle cx="123" cy="51" r="9" fill="#2f6f8c"/><circle cx="123" cy="51" r="5" fill="#e8b23a"/><circle cx="123" cy="51" r="2" fill="#23303a"/></g>
    <g><circle cx="143" cy="61" r="9" fill="#2f6f8c"/><circle cx="143" cy="61" r="5" fill="#e8b23a"/><circle cx="143" cy="61" r="2" fill="#23303a"/></g>
    <g><circle cx="161" cy="75" r="9" fill="#2f6f8c"/><circle cx="161" cy="75" r="5" fill="#e8b23a"/><circle cx="161" cy="75" r="2" fill="#23303a"/></g>
    <g><circle cx="174" cy="94" r="9" fill="#2f6f8c"/><circle cx="174" cy="94" r="5" fill="#e8b23a"/><circle cx="174" cy="94" r="2" fill="#23303a"/></g>
  </g>
  <ellipse cx="100" cy="142" rx="26" ry="34" fill="#15616e"/>
  <circle cx="100" cy="112" r="15" fill="#1f7d8c"/>
  <line x1="100" y1="97" x2="100" y2="86" stroke="#1f7d8c" stroke-width="2"/><circle cx="100" cy="84" r="3" fill="#2f9d6c"/>
  <line x1="93" y1="98" x2="89" y2="88" stroke="#1f7d8c" stroke-width="2"/><circle cx="88" cy="86" r="3" fill="#2f9d6c"/>
  <line x1="107" y1="98" x2="111" y2="88" stroke="#1f7d8c" stroke-width="2"/><circle cx="112" cy="86" r="3" fill="#2f9d6c"/>
  <polygon points="100,114 88,120 100,124" fill="#e8b03a"/>
  <circle cx="94" cy="110" r="3" fill="#12333a"/>
  <circle cx="106" cy="110" r="3" fill="#12333a"/>
</svg>
