<svg xmlns="http://www.w3.org/2000/svg" viewBox="0 0 200 200" width="200" height="200">
  <!-- Body (large white oval) -->
  <ellipse cx="108" cy="142" rx="68" ry="46" fill="#f5f5f5"/>
  <!-- Wing detail -->
  <ellipse cx="108" cy="138" rx="60" ry="36" fill="#e8e8e8"/>
  <path d="M58 130 Q108 110 158 130" stroke="#ddd" stroke-width="3" fill="none"/>
  <!-- Long graceful neck (S-curve) -->
  <path d="M76 112 C72 90 80 70 90 56 C96 46 96 36 88 28" stroke="#f5f5f5" stroke-width="20" fill="none" stroke-linecap="round"/>
  <!-- Head -->
  <circle cx="82" cy="24" r="20" fill="#f5f5f5"/>
  <!-- Orange beak -->
  <path d="M66 26 L50 24 L50 30 L66 28 Z" fill="#f5a623"/>
  <!-- Black beak base -->
  <ellipse cx="68" cy="27" rx="6" ry="4" fill="#222"/>
  <!-- Eye -->
  <circle cx="80" cy="18" r="5" fill="#222"/>
  <circle cx="81" cy="17" r="2" fill="#fff"/>
  <!-- Water ripple -->
  <path d="M34 172 Q60 165 86 172 Q112 178 138 172 Q162 166 178 172" stroke="#b8d8f0" stroke-width="3" fill="none" opacity="0.8"/>
</svg>
