<svg xmlns="http://www.w3.org/2000/svg" viewBox="0 0 200 200" width="200" height="200">
  <!-- Ears -->
  <polygon points="62,78 48,40 90,70" fill="#e8732a"/>
  <polygon points="138,78 152,40 110,70" fill="#e8732a"/>
  <polygon points="65,74 56,52 86,70" fill="#fff"/>
  <polygon points="135,74 144,52 114,70" fill="#fff"/>
  <!-- Head -->
  <ellipse cx="100" cy="114" rx="66" ry="68" fill="#e8732a"/>
  <!-- Stripes -->
  <path d="M64 76 Q72 68 80 76" stroke="#333" stroke-width="5" fill="none" stroke-linecap="round"/>
  <path d="M120 76 Q128 68 136 76" stroke="#333" stroke-width="5" fill="none" stroke-linecap="round"/>
  <path d="M54 100 Q62 92 68 102" stroke="#333" stroke-width="4" fill="none" stroke-linecap="round"/>
  <path d="M132 102 Q138 92 146 100" stroke="#333" stroke-width="4" fill="none" stroke-linecap="round"/>
  <!-- White muzzle -->
  <ellipse cx="100" cy="138" rx="34" ry="26" fill="#f5e6d0"/>
  <!-- Eyes -->
  <circle cx="78" cy="100" r="10" fill="#fff"/>
  <circle cx="122" cy="100" r="10" fill="#fff"/>
  <ellipse cx="80" cy="100" rx="5" ry="6" fill="#5a8a00"/>
  <ellipse cx="124" cy="100" rx="5" ry="6" fill="#5a8a00"/>
  <circle cx="80" cy="100" r="3" fill="#111"/>
  <circle cx="124" cy="100" r="3" fill="#111"/>
  <circle cx="81" cy="98" r="1.5" fill="#fff"/>
  <circle cx="125" cy="98" r="1.5" fill="#fff"/>
  <!-- Nose -->
  <ellipse cx="100" cy="126" rx="8" ry="6" fill="#8b3a3a"/>
  <!-- Whiskers -->
  <line x1="40" y1="132" x2="74" y2="134" stroke="#fff" stroke-width="1.5"/>
  <line x1="40" y1="140" x2="74" y2="140" stroke="#fff" stroke-width="1.5"/>
  <line x1="126" y1="134" x2="160" y2="132" stroke="#fff" stroke-width="1.5"/>
  <line x1="126" y1="140" x2="160" y2="140" stroke="#fff" stroke-width="1.5"/>
</svg>
