<svg xmlns="http://www.w3.org/2000/svg" viewBox="0 0 200 200" width="200" height="200">
  <!-- Shell -->
  <ellipse cx="100" cy="110" rx="68" ry="58" fill="#5aab63"/>
  <!-- Shell pattern -->
  <ellipse cx="100" cy="108" rx="30" ry="26" fill="#3d7a42"/>
  <ellipse cx="62" cy="95" rx="18" ry="16" fill="#3d7a42"/>
  <ellipse cx="138" cy="95" rx="18" ry="16" fill="#3d7a42"/>
  <ellipse cx="72" cy="130" rx="16" ry="14" fill="#3d7a42"/>
  <ellipse cx="128" cy="130" rx="16" ry="14" fill="#3d7a42"/>
  <!-- Shell rim -->
  <ellipse cx="100" cy="110" rx="68" ry="58" fill="none" stroke="#3d7a42" stroke-width="4"/>
  <!-- Head -->
  <ellipse cx="100" cy="52" rx="28" ry="24" fill="#78c27e"/>
  <!-- Eyes -->
  <circle cx="88" cy="46" r="6" fill="#fff"/>
  <circle cx="112" cy="46" r="6" fill="#fff"/>
  <circle cx="89" cy="46" r="4" fill="#222"/>
  <circle cx="113" cy="46" r="4" fill="#222"/>
  <circle cx="89" cy="45" r="1.5" fill="#fff"/>
  <circle cx="113" cy="45" r="1.5" fill="#fff"/>
  <!-- Nostrils -->
  <circle cx="96" cy="58" r="2" fill="#4a8b50"/>
  <circle cx="104" cy="58" r="2" fill="#4a8b50"/>
  <!-- Flippers -->
  <ellipse cx="38" cy="108" rx="20" ry="12" fill="#78c27e" transform="rotate(-30 38 108)"/>
  <ellipse cx="162" cy="108" rx="20" ry="12" fill="#78c27e" transform="rotate(30 162 108)"/>
  <ellipse cx="60" cy="158" rx="18" ry="10" fill="#78c27e" transform="rotate(20 60 158)"/>
  <ellipse cx="140" cy="158" rx="18" ry="10" fill="#78c27e" transform="rotate(-20 140 158)"/>
</svg>
