<svg xmlns="http://www.w3.org/2000/svg" viewBox="0 0 200 200" width="200" height="200">
  <ellipse cx="66" cy="158" rx="20" ry="12" fill="#9a7868" transform="rotate(-15 66 158)"/>
  <ellipse cx="134" cy="158" rx="20" ry="12" fill="#9a7868" transform="rotate(15 134 158)"/>
  <ellipse cx="100" cy="100" rx="56" ry="56" fill="#a98a7a"/>
  <ellipse cx="100" cy="125" rx="40" ry="34" fill="#c4a898"/>
  <circle cx="80" cy="88" r="7" fill="#2a201c"/>
  <circle cx="120" cy="88" r="7" fill="#2a201c"/>
  <ellipse cx="100" cy="112" rx="9" ry="7" fill="#6a4c40"/>
  <path d="M90 130 Q86 162 92 168 Q96 160 95 132 Z" fill="#f1ece0"/>
  <path d="M110 130 Q114 162 108 168 Q104 160 105 132 Z" fill="#f1ece0"/>
  <line x1="84" y1="124" x2="58" y2="120" stroke="#7a5c4c" stroke-width="1.5"/>
  <line x1="84" y1="130" x2="58" y2="132" stroke="#7a5c4c" stroke-width="1.5"/>
  <line x1="116" y1="124" x2="142" y2="120" stroke="#7a5c4c" stroke-width="1.5"/>
  <line x1="116" y1="130" x2="142" y2="132" stroke="#7a5c4c" stroke-width="1.5"/>
</svg>
